<svg xmlns="http://www.w3.org/2000/svg" width="181.041" height="208.282" viewBox="0 0 181.041 208.282">
  <g id="blob_1" data-name="blob 1" transform="translate(145.035 193.899)">
    <path id="Path_55" data-name="Path 55" d="M-65.117-194.345c19.372,13.943,46.082,18.27,56.1,32.649s3.339,38.812-5.07,61.54C-22.5-77.472-32.679-56.493-48.754-44.08-64.829-31.711-86.8-27.908-109.88-26.291-133-24.63-157.24-25.111-169.688-38.748c-12.489-13.593-13.231-40.385-14.3-62.589-1.072-22.247-2.514-39.9,2.556-55.027,5.111-15.079,16.735-27.535,29.924-43.62,13.19-16.04,27.946-35.709,41.424-33.786,13.437,1.967,25.555,25.525,44.969,39.424" transform="translate(40 40)" fill="#c9ddff"/>
  </g>
</svg>
