<svg xmlns="http://www.w3.org/2000/svg" xmlns:xlink="http://www.w3.org/1999/xlink" width="113" height="98" viewBox="0 0 113 98">
  <defs>
    <clipPath id="clip-path">
      <rect width="113" height="98" fill="none"/>
    </clipPath>
  </defs>
  <g id="Repeat_Grid_1" data-name="Repeat Grid 1" clip-path="url(#clip-path)" style="isolation: isolate">
    <g transform="translate(-1428 -246)">
      <circle id="Ellipse_1" data-name="Ellipse 1" cx="2.5" cy="2.5" r="2.5" transform="translate(1428 246)" fill="#f7dd72"/>
    </g>
    <g transform="translate(-1413 -246)">
      <circle id="Ellipse_1-2" data-name="Ellipse 1" cx="2.5" cy="2.5" r="2.5" transform="translate(1428 246)" fill="#f7dd72"/>
    </g>
    <g transform="translate(-1398 -246)">
      <circle id="Ellipse_1-3" data-name="Ellipse 1" cx="2.5" cy="2.5" r="2.5" transform="translate(1428 246)" fill="#f7dd72"/>
    </g>
    <g transform="translate(-1383 -246)">
      <circle id="Ellipse_1-4" data-name="Ellipse 1" cx="2.5" cy="2.5" r="2.5" transform="translate(1428 246)" fill="#f7dd72"/>
    </g>
    <g transform="translate(-1368 -246)">
      <circle id="Ellipse_1-5" data-name="Ellipse 1" cx="2.5" cy="2.5" r="2.5" transform="translate(1428 246)" fill="#f7dd72"/>
    </g>
    <g transform="translate(-1353 -246)">
      <circle id="Ellipse_1-6" data-name="Ellipse 1" cx="2.5" cy="2.5" r="2.5" transform="translate(1428 246)" fill="#f7dd72"/>
    </g>
    <g transform="translate(-1338 -246)">
      <circle id="Ellipse_1-7" data-name="Ellipse 1" cx="2.5" cy="2.5" r="2.5" transform="translate(1428 246)" fill="#f7dd72"/>
    </g>
    <g transform="translate(-1323 -246)">
      <circle id="Ellipse_1-8" data-name="Ellipse 1" cx="2.5" cy="2.5" r="2.5" transform="translate(1428 246)" fill="#f7dd72"/>
    </g>
    <g transform="translate(-1428 -231)">
      <circle id="Ellipse_1-9" data-name="Ellipse 1" cx="2.5" cy="2.5" r="2.5" transform="translate(1428 246)" fill="#f7dd72"/>
    </g>
    <g transform="translate(-1413 -231)">
      <circle id="Ellipse_1-10" data-name="Ellipse 1" cx="2.5" cy="2.5" r="2.5" transform="translate(1428 246)" fill="#f7dd72"/>
    </g>
    <g transform="translate(-1398 -231)">
      <circle id="Ellipse_1-11" data-name="Ellipse 1" cx="2.5" cy="2.5" r="2.5" transform="translate(1428 246)" fill="#f7dd72"/>
    </g>
    <g transform="translate(-1383 -231)">
      <circle id="Ellipse_1-12" data-name="Ellipse 1" cx="2.5" cy="2.5" r="2.5" transform="translate(1428 246)" fill="#f7dd72"/>
    </g>
    <g transform="translate(-1368 -231)">
      <circle id="Ellipse_1-13" data-name="Ellipse 1" cx="2.5" cy="2.5" r="2.5" transform="translate(1428 246)" fill="#f7dd72"/>
    </g>
    <g transform="translate(-1353 -231)">
      <circle id="Ellipse_1-14" data-name="Ellipse 1" cx="2.5" cy="2.5" r="2.5" transform="translate(1428 246)" fill="#f7dd72"/>
    </g>
    <g transform="translate(-1338 -231)">
      <circle id="Ellipse_1-15" data-name="Ellipse 1" cx="2.5" cy="2.5" r="2.5" transform="translate(1428 246)" fill="#f7dd72"/>
    </g>
    <g transform="translate(-1323 -231)">
      <circle id="Ellipse_1-16" data-name="Ellipse 1" cx="2.5" cy="2.5" r="2.5" transform="translate(1428 246)" fill="#f7dd72"/>
    </g>
    <g transform="translate(-1428 -216)">
      <circle id="Ellipse_1-17" data-name="Ellipse 1" cx="2.5" cy="2.5" r="2.5" transform="translate(1428 246)" fill="#f7dd72"/>
    </g>
    <g transform="translate(-1413 -216)">
      <circle id="Ellipse_1-18" data-name="Ellipse 1" cx="2.5" cy="2.5" r="2.5" transform="translate(1428 246)" fill="#f7dd72"/>
    </g>
    <g transform="translate(-1398 -216)">
      <circle id="Ellipse_1-19" data-name="Ellipse 1" cx="2.5" cy="2.5" r="2.5" transform="translate(1428 246)" fill="#f7dd72"/>
    </g>
    <g transform="translate(-1383 -216)">
      <circle id="Ellipse_1-20" data-name="Ellipse 1" cx="2.5" cy="2.5" r="2.5" transform="translate(1428 246)" fill="#f7dd72"/>
    </g>
    <g transform="translate(-1368 -216)">
      <circle id="Ellipse_1-21" data-name="Ellipse 1" cx="2.5" cy="2.5" r="2.5" transform="translate(1428 246)" fill="#f7dd72"/>
    </g>
    <g transform="translate(-1353 -216)">
      <circle id="Ellipse_1-22" data-name="Ellipse 1" cx="2.5" cy="2.5" r="2.5" transform="translate(1428 246)" fill="#f7dd72"/>
    </g>
    <g transform="translate(-1338 -216)">
      <circle id="Ellipse_1-23" data-name="Ellipse 1" cx="2.5" cy="2.5" r="2.5" transform="translate(1428 246)" fill="#f7dd72"/>
    </g>
    <g transform="translate(-1323 -216)">
      <circle id="Ellipse_1-24" data-name="Ellipse 1" cx="2.5" cy="2.5" r="2.5" transform="translate(1428 246)" fill="#f7dd72"/>
    </g>
    <g transform="translate(-1428 -201)">
      <circle id="Ellipse_1-25" data-name="Ellipse 1" cx="2.5" cy="2.5" r="2.5" transform="translate(1428 246)" fill="#f7dd72"/>
    </g>
    <g transform="translate(-1413 -201)">
      <circle id="Ellipse_1-26" data-name="Ellipse 1" cx="2.5" cy="2.5" r="2.5" transform="translate(1428 246)" fill="#f7dd72"/>
    </g>
    <g transform="translate(-1398 -201)">
      <circle id="Ellipse_1-27" data-name="Ellipse 1" cx="2.5" cy="2.5" r="2.5" transform="translate(1428 246)" fill="#f7dd72"/>
    </g>
    <g transform="translate(-1383 -201)">
      <circle id="Ellipse_1-28" data-name="Ellipse 1" cx="2.5" cy="2.5" r="2.5" transform="translate(1428 246)" fill="#f7dd72"/>
    </g>
    <g transform="translate(-1368 -201)">
      <circle id="Ellipse_1-29" data-name="Ellipse 1" cx="2.5" cy="2.5" r="2.5" transform="translate(1428 246)" fill="#f7dd72"/>
    </g>
    <g transform="translate(-1353 -201)">
      <circle id="Ellipse_1-30" data-name="Ellipse 1" cx="2.5" cy="2.5" r="2.5" transform="translate(1428 246)" fill="#f7dd72"/>
    </g>
    <g transform="translate(-1338 -201)">
      <circle id="Ellipse_1-31" data-name="Ellipse 1" cx="2.5" cy="2.5" r="2.5" transform="translate(1428 246)" fill="#f7dd72"/>
    </g>
    <g transform="translate(-1323 -201)">
      <circle id="Ellipse_1-32" data-name="Ellipse 1" cx="2.5" cy="2.5" r="2.5" transform="translate(1428 246)" fill="#f7dd72"/>
    </g>
    <g transform="translate(-1428 -186)">
      <circle id="Ellipse_1-33" data-name="Ellipse 1" cx="2.5" cy="2.5" r="2.5" transform="translate(1428 246)" fill="#f7dd72"/>
    </g>
    <g transform="translate(-1413 -186)">
      <circle id="Ellipse_1-34" data-name="Ellipse 1" cx="2.5" cy="2.5" r="2.5" transform="translate(1428 246)" fill="#f7dd72"/>
    </g>
    <g transform="translate(-1398 -186)">
      <circle id="Ellipse_1-35" data-name="Ellipse 1" cx="2.5" cy="2.5" r="2.5" transform="translate(1428 246)" fill="#f7dd72"/>
    </g>
    <g transform="translate(-1383 -186)">
      <circle id="Ellipse_1-36" data-name="Ellipse 1" cx="2.5" cy="2.5" r="2.5" transform="translate(1428 246)" fill="#f7dd72"/>
    </g>
    <g transform="translate(-1368 -186)">
      <circle id="Ellipse_1-37" data-name="Ellipse 1" cx="2.5" cy="2.5" r="2.5" transform="translate(1428 246)" fill="#f7dd72"/>
    </g>
    <g transform="translate(-1353 -186)">
      <circle id="Ellipse_1-38" data-name="Ellipse 1" cx="2.5" cy="2.5" r="2.5" transform="translate(1428 246)" fill="#f7dd72"/>
    </g>
    <g transform="translate(-1338 -186)">
      <circle id="Ellipse_1-39" data-name="Ellipse 1" cx="2.5" cy="2.5" r="2.5" transform="translate(1428 246)" fill="#f7dd72"/>
    </g>
    <g transform="translate(-1323 -186)">
      <circle id="Ellipse_1-40" data-name="Ellipse 1" cx="2.5" cy="2.5" r="2.5" transform="translate(1428 246)" fill="#f7dd72"/>
    </g>
    <g transform="translate(-1428 -171)">
      <circle id="Ellipse_1-41" data-name="Ellipse 1" cx="2.5" cy="2.5" r="2.5" transform="translate(1428 246)" fill="#f7dd72"/>
    </g>
    <g transform="translate(-1413 -171)">
      <circle id="Ellipse_1-42" data-name="Ellipse 1" cx="2.5" cy="2.5" r="2.5" transform="translate(1428 246)" fill="#f7dd72"/>
    </g>
    <g transform="translate(-1398 -171)">
      <circle id="Ellipse_1-43" data-name="Ellipse 1" cx="2.5" cy="2.5" r="2.5" transform="translate(1428 246)" fill="#f7dd72"/>
    </g>
    <g transform="translate(-1383 -171)">
      <circle id="Ellipse_1-44" data-name="Ellipse 1" cx="2.5" cy="2.5" r="2.5" transform="translate(1428 246)" fill="#f7dd72"/>
    </g>
    <g transform="translate(-1368 -171)">
      <circle id="Ellipse_1-45" data-name="Ellipse 1" cx="2.5" cy="2.5" r="2.5" transform="translate(1428 246)" fill="#f7dd72"/>
    </g>
    <g transform="translate(-1353 -171)">
      <circle id="Ellipse_1-46" data-name="Ellipse 1" cx="2.5" cy="2.5" r="2.5" transform="translate(1428 246)" fill="#f7dd72"/>
    </g>
    <g transform="translate(-1338 -171)">
      <circle id="Ellipse_1-47" data-name="Ellipse 1" cx="2.5" cy="2.5" r="2.5" transform="translate(1428 246)" fill="#f7dd72"/>
    </g>
    <g transform="translate(-1323 -171)">
      <circle id="Ellipse_1-48" data-name="Ellipse 1" cx="2.5" cy="2.5" r="2.5" transform="translate(1428 246)" fill="#f7dd72"/>
    </g>
    <g transform="translate(-1428 -156)">
      <circle id="Ellipse_1-49" data-name="Ellipse 1" cx="2.5" cy="2.5" r="2.5" transform="translate(1428 246)" fill="#f7dd72"/>
    </g>
    <g transform="translate(-1413 -156)">
      <circle id="Ellipse_1-50" data-name="Ellipse 1" cx="2.5" cy="2.5" r="2.5" transform="translate(1428 246)" fill="#f7dd72"/>
    </g>
    <g transform="translate(-1398 -156)">
      <circle id="Ellipse_1-51" data-name="Ellipse 1" cx="2.5" cy="2.5" r="2.5" transform="translate(1428 246)" fill="#f7dd72"/>
    </g>
    <g transform="translate(-1383 -156)">
      <circle id="Ellipse_1-52" data-name="Ellipse 1" cx="2.5" cy="2.5" r="2.5" transform="translate(1428 246)" fill="#f7dd72"/>
    </g>
    <g transform="translate(-1368 -156)">
      <circle id="Ellipse_1-53" data-name="Ellipse 1" cx="2.5" cy="2.5" r="2.5" transform="translate(1428 246)" fill="#f7dd72"/>
    </g>
    <g transform="translate(-1353 -156)">
      <circle id="Ellipse_1-54" data-name="Ellipse 1" cx="2.5" cy="2.5" r="2.5" transform="translate(1428 246)" fill="#f7dd72"/>
    </g>
    <g transform="translate(-1338 -156)">
      <circle id="Ellipse_1-55" data-name="Ellipse 1" cx="2.5" cy="2.5" r="2.5" transform="translate(1428 246)" fill="#f7dd72"/>
    </g>
    <g transform="translate(-1323 -156)">
      <circle id="Ellipse_1-56" data-name="Ellipse 1" cx="2.5" cy="2.5" r="2.5" transform="translate(1428 246)" fill="#f7dd72"/>
    </g>
  </g>
</svg>
