<svg xmlns="http://www.w3.org/2000/svg" width="246.007" height="75" viewBox="0 0 246.007 75">
  <path id="KOAL" d="M4.2,80.809a10.183,10.183,0,0,0,7.447-3.073,10.182,10.182,0,0,0,3.073-7.447V16.433a10.183,10.183,0,0,0-3.073-7.447A10.183,10.183,0,0,0,4.2,5.911Zm89.589,0a35.9,35.9,0,0,0,26.3-10.886,36.409,36.409,0,0,0,10.936-26.771A35.813,35.813,0,0,0,120.091,16.8a35.752,35.752,0,0,0-26.3-10.936A35.984,35.984,0,0,0,67.382,16.8,36.406,36.406,0,0,0,56.5,43.516,36.068,36.068,0,0,0,67.382,69.923,36.207,36.207,0,0,0,93.79,80.809ZM94.1,69.194A26.141,26.141,0,0,1,67.85,43a25.281,25.281,0,0,1,7.657-18.542,26.217,26.217,0,0,1,37.136,0A25.129,25.129,0,0,1,120.351,43a25.212,25.212,0,0,1-7.709,18.542A25.361,25.361,0,0,1,94.1,69.194Zm76.83-56.355a10.62,10.62,0,0,0-5.99-6.093l-2.864-.782-.573.052-.573-.052-2.865.782a10.771,10.771,0,0,0-5.99,6.094L125.721,80.861H128.9c4.427,0,7.709-2.292,9.948-6.823L161.5,15.6l13.542,35H158.17A10.492,10.492,0,0,0,147.7,61.121H179.16l5,12.917c2.24,4.532,5.573,6.823,10,6.823h3.125Zm79.276,67.97a10.492,10.492,0,0,0-10.52-10.521H211.352V16.433a10.182,10.182,0,0,0-3.073-7.447,10.182,10.182,0,0,0-7.447-3.073v74.9Zm-184.233,0L31.753,43.36,65.972,5.911c-6.875,0-11.563.677-14.114,2.031A19.729,19.729,0,0,0,45.087,13.2L17.535,43.36,45.087,73.516a19.006,19.006,0,0,0,6.771,5.208c2.552,1.408,7.24,2.085,14.115,2.085Z" transform="translate(-4.2 -5.861)" fill="#3ac3f3" fill-rule="evenodd"/>
</svg>
